<svg width="1200" height="390" viewBox="0 0 1200 390" fill="none" xmlns="http://www.w3.org/2000/svg">
  <defs>
    <linearGradient id="panel" x1="40" y1="30" x2="1160" y2="360" gradientUnits="userSpaceOnUse">
      <stop stop-color="#FAF8F3"/>
      <stop offset="1" stop-color="#F2F5FA"/>
    </linearGradient>
    <linearGradient id="core" x1="465" y1="104" x2="732" y2="285" gradientUnits="userSpaceOnUse">
      <stop stop-color="#222328"/>
      <stop offset="1" stop-color="#111216"/>
    </linearGradient>
    <style>.sans{font-family:-apple-system,BlinkMacSystemFont,"Segoe UI","Noto Sans SC","PingFang SC",sans-serif}</style>
  </defs>
  <rect x="1" y="1" width="1198" height="388" rx="32" fill="url(#panel)" stroke="#E6E3DD"/>
  <g class="sans">
    <text x="54" y="62" fill="#86868B" font-size="15" font-weight="650" letter-spacing="1.4">YOUR DIGITAL COLLECTION FLOW</text>

    <g transform="translate(54 95)">
      <rect width="252" height="52" rx="18" fill="white" stroke="#E4E4E7"/>
      <circle cx="29" cy="26" r="10" fill="#34C759"/><text x="51" y="32" fill="#1D1D1F" font-size="17" font-weight="650">微信读书 · 书与划线</text>
      <rect y="64" width="252" height="52" rx="18" fill="white" stroke="#E4E4E7"/>
      <circle cx="29" cy="90" r="10" fill="#FF9F0A"/><text x="51" y="96" fill="#1D1D1F" font-size="17" font-weight="650">豆瓣 · 书影音评价</text>
      <rect y="128" width="252" height="52" rx="18" fill="white" stroke="#E4E4E7"/>
      <circle cx="29" cy="154" r="10" fill="#FF453A"/><text x="51" y="160" fill="#1D1D1F" font-size="17" font-weight="650">微博 · 用户博文</text>
      <rect y="192" width="252" height="52" rx="18" fill="white" stroke="#E4E4E7"/>
      <circle cx="29" cy="218" r="10" fill="#0A84FF"/><text x="51" y="224" fill="#1D1D1F" font-size="17" font-weight="650">网页 · 全文与选区</text>
    </g>

    <g stroke="#B4B6BE" stroke-width="2" stroke-linecap="round">
      <path d="M330 221H428"/><path d="M414 212L428 221L414 230"/>
      <path d="M774 221H871"/><path d="M857 212L871 221L857 230"/>
    </g>

    <g transform="translate(454 106)">
      <rect width="292" height="230" rx="34" fill="url(#core)"/>
      <rect x="101" y="35" width="90" height="90" rx="28" fill="#F5F5F7"/>
      <path d="M121 57H171V68H152V94H140V68H121V57Z" fill="#1D1D1F"/>
      <path d="M125 91C135 104 157 104 167 91" stroke="#0A84FF" stroke-width="7" stroke-linecap="round"/>
      <text x="146" y="158" text-anchor="middle" fill="white" font-size="25" font-weight="720">囤囤 TunNest</text>
      <text x="146" y="191" text-anchor="middle" fill="#AEB0B8" font-size="15">清洗 · 去重 · 结构化</text>
    </g>

    <g transform="translate(894 127)">
      <rect width="252" height="188" rx="30" fill="white" stroke="#DADCE2"/>
      <rect x="81" y="28" width="90" height="90" rx="25" fill="#1D1D1F"/>
      <text x="126" y="91" text-anchor="middle" fill="white" font-size="48" font-weight="760">N</text>
      <text x="126" y="148" text-anchor="middle" fill="#1D1D1F" font-size="21" font-weight="700">你的 Notion</text>
      <text x="126" y="171" text-anchor="middle" fill="#86868B" font-size="14">由你掌控的长期收藏</text>
    </g>

    <g transform="translate(380 350)">
      <circle cx="7" cy="7" r="7" fill="#30D158"/>
      <text x="24" y="13" fill="#5E5F66" font-size="14" font-weight="560">内容不经过许可证服务器 · Notion Token 仅保存在本地或 GitHub Secrets</text>
    </g>
  </g>
</svg>
